<?xml version="1.0" encoding="UTF-8" standalone="no"?>
<!-- Created with Inkscape (http://www.inkscape.org/) -->

<svg
   xmlns:dc="http://purl.org/dc/elements/1.1/"
   xmlns:cc="http://creativecommons.org/ns#"
   xmlns:rdf="http://www.w3.org/1999/02/22-rdf-syntax-ns#"
   xmlns:svg="http://www.w3.org/2000/svg"
   xmlns="http://www.w3.org/2000/svg"
   xmlns:xlink="http://www.w3.org/1999/xlink"
   xmlns:sodipodi="http://sodipodi.sourceforge.net/DTD/sodipodi-0.dtd"
   xmlns:inkscape="http://www.inkscape.org/namespaces/inkscape"
   width="100"
   height="100"
   viewBox="0 0 100 100"
   id="svg2"
   version="1.1"
   inkscape:version="0.91 r13725"
   sodipodi:docname="laptop.svg">
  <defs
     id="defs4">
    <linearGradient
       inkscape:collect="always"
       id="linearGradient4221">
      <stop
         style="stop-color:#139fe8;stop-opacity:1"
         offset="0"
         id="stop4223" />
      <stop
         style="stop-color:#33e6c7;stop-opacity:1"
         offset="1"
         id="stop4225" />
    </linearGradient>
    <linearGradient
       inkscape:collect="always"
       xlink:href="#linearGradient4221"
       id="linearGradient4227"
       x1="17.298862"
       y1="996.80377"
       x2="82.579971"
       y2="996.80377"
       gradientUnits="userSpaceOnUse"
       gradientTransform="translate(0,1.1367)" />
  </defs>
  <sodipodi:namedview
     id="base"
     pagecolor="#ffffff"
     bordercolor="#666666"
     borderopacity="1.0"
     inkscape:pageopacity="0.0"
     inkscape:pageshadow="2"
     inkscape:zoom="3.959798"
     inkscape:cx="73.479471"
     inkscape:cy="44.072006"
     inkscape:document-units="px"
     inkscape:current-layer="layer1"
     showgrid="false"
     units="px"
     inkscape:showpageshadow="false"
     inkscape:snap-bbox="true"
     inkscape:bbox-nodes="true"
     inkscape:object-paths="false"
     inkscape:snap-bbox-edge-midpoints="true"
     inkscape:snap-bbox-midpoints="false"
     inkscape:window-width="1600"
     inkscape:window-height="838"
     inkscape:window-x="-8"
     inkscape:window-y="-8"
     inkscape:window-maximized="1" />
  <metadata
     id="metadata7">
    <rdf:RDF>
      <cc:Work
         rdf:about="">
        <dc:format>image/svg+xml</dc:format>
        <dc:type
           rdf:resource="http://purl.org/dc/dcmitype/StillImage" />
        <dc:title></dc:title>
      </cc:Work>
    </rdf:RDF>
  </metadata>
  <g
     inkscape:label="Layer 1"
     inkscape:groupmode="layer"
     id="layer1"
     transform="translate(0,-952.36216)">
    <path
       style="opacity:1;fill:url(#linearGradient4227);fill-opacity:1;stroke:none;stroke-width:5;stroke-miterlimit:4;stroke-dasharray:none;stroke-dashoffset:0;stroke-opacity:1"
       d="m 21.439453,980.72152 c -2.000427,0 -3.611328,1.78118 -3.611328,3.99218 l 0,33.7324 -6.71875,0 c -1.1192489,0 -2.0214842,0.6393 -2.0214842,1.4336 l 0,2.6895 c 0,0.7943 0.9022353,1.4336 2.0214842,1.4336 l 77.78125,0 c 1.119249,0 2.021484,-0.6393 2.021484,-1.4336 l 0,-2.6895 c 0,-0.7943 -0.902235,-1.4336 -2.021484,-1.4336 l -6.71875,0 0,-33.7324 c 0,-2.211 -1.610901,-3.99218 -3.611328,-3.99218 l -57.121094,0 z M 50,981.80159 a 0.98214287,0.98214287 0 0 1 0.982422,0.98243 A 0.98214287,0.98214287 0 0 1 50,983.76644 0.98214287,0.98214287 0 0 1 49.017578,982.78402 0.98214287,0.98214287 0 0 1 50,981.80159 Z m -29.105469,3.10743 58.210938,0 0,31.31448 -58.210938,0 0,-31.31448 z m 20.330078,33.53708 17.550782,0 c 0.0091,0.065 0.01953,0.1283 0.01953,0.1953 0,0.7667 -0.618069,1.3848 -1.384766,1.3848 l -14.820312,0 c -0.766697,0 -1.384766,-0.6181 -1.384766,-1.3848 0,-0.067 0.01041,-0.1308 0.01953,-0.1953 z"
       id="rect4199"
       inkscape:connector-curvature="0" />
  </g>
</svg>
