<?xml version="1.0" encoding="UTF-8" standalone="no"?>
<svg
   xmlns:dc="http://purl.org/dc/elements/1.1/"
   xmlns:cc="http://creativecommons.org/ns#"
   xmlns:rdf="http://www.w3.org/1999/02/22-rdf-syntax-ns#"
   xmlns:svg="http://www.w3.org/2000/svg"
   xmlns="http://www.w3.org/2000/svg"
   xmlns:xlink="http://www.w3.org/1999/xlink"
   version="1.1"
   id="svg2"
   viewBox="0 0 100 100"
   height="100"
   width="100">
  <defs
     id="defs4">
    <linearGradient
       id="linearGradient4221">
      <stop
         id="stop4223"
         offset="0"
         style="stop-color:#139fe8;stop-opacity:1" />
      <stop
         id="stop4225"
         offset="1"
         style="stop-color:#33e6c7;stop-opacity:1" />
    </linearGradient>
    <linearGradient
       gradientTransform="translate(67.046326,-940.53983)"
       gradientUnits="userSpaceOnUse"
       y2="985.18701"
       x2="9.5964489"
       y1="985.18701"
       x1="-40.153564"
       id="linearGradient4255"
       xlink:href="#linearGradient4221" />
  </defs>
  <metadata
     id="metadata7">
    <rdf:RDF>
      <cc:Work
         rdf:about="">
        <dc:format>image/svg+xml</dc:format>
        <dc:type
           rdf:resource="http://purl.org/dc/dcmitype/StillImage" />
        <dc:title></dc:title>
      </cc:Work>
    </rdf:RDF>
  </metadata>
  <g
     transform="translate(0,-952.36216)"
     id="layer1">
    <path
       id="rect4247"
       transform="translate(0,952.36216)"
       d="M 32.148438 13.837891 C 29.657037 13.837891 27.650391 15.842583 27.650391 18.333984 L 27.650391 81.666016 C 27.650391 84.157417 29.657037 86.162109 32.148438 86.162109 L 67.851562 86.162109 C 70.342963 86.162109 72.349609 84.157417 72.349609 81.666016 L 72.349609 18.333984 C 72.349609 15.842583 70.342964 13.837891 67.851562 13.837891 L 32.148438 13.837891 z M 31.09375 19.369141 L 68.90625 19.369141 L 68.90625 76.154297 L 31.09375 76.154297 L 31.09375 19.369141 z M 50 78.347656 A 2.841054 2.841054 0 0 1 52.841797 81.189453 A 2.841054 2.841054 0 0 1 50 84.029297 A 2.841054 2.841054 0 0 1 47.158203 81.189453 A 2.841054 2.841054 0 0 1 50 78.347656 z "
       style="opacity:1;fill:url(#linearGradient4255);fill-opacity:1;stroke:none;stroke-width:5;stroke-miterlimit:4;stroke-dasharray:none;stroke-dashoffset:0;stroke-opacity:1" />
  </g>
</svg>
