<?xml version="1.0" encoding="UTF-8" standalone="no"?>
<!-- Created with Inkscape (http://www.inkscape.org/) -->

<svg
   xmlns:dc="http://purl.org/dc/elements/1.1/"
   xmlns:cc="http://creativecommons.org/ns#"
   xmlns:rdf="http://www.w3.org/1999/02/22-rdf-syntax-ns#"
   xmlns:svg="http://www.w3.org/2000/svg"
   xmlns="http://www.w3.org/2000/svg"
   xmlns:xlink="http://www.w3.org/1999/xlink"
   xmlns:sodipodi="http://sodipodi.sourceforge.net/DTD/sodipodi-0.dtd"
   xmlns:inkscape="http://www.inkscape.org/namespaces/inkscape"
   width="100"
   height="100"
   viewBox="0 0 100 100"
   id="svg2"
   version="1.1"
   inkscape:version="0.91 r13725"
   sodipodi:docname="processor.svg">
  <defs
     id="defs4">
    <linearGradient
       inkscape:collect="always"
       id="linearGradient4191">
      <stop
         style="stop-color:#139fe8;stop-opacity:1"
         offset="0"
         id="stop4193" />
      <stop
         style="stop-color:#33e6c7;stop-opacity:1"
         offset="1"
         id="stop4195" />
    </linearGradient>
    <linearGradient
       inkscape:collect="always"
       xlink:href="#linearGradient4191"
       id="linearGradient4197"
       x1="-17.5"
       y1="50.357143"
       x2="97.14286"
       y2="50.357143"
       gradientUnits="userSpaceOnUse" />
  </defs>
  <sodipodi:namedview
     id="base"
     pagecolor="#ffffff"
     bordercolor="#666666"
     borderopacity="1.0"
     inkscape:pageopacity="0.0"
     inkscape:pageshadow="2"
     inkscape:zoom="1.4"
     inkscape:cx="81.062886"
     inkscape:cy="26.091646"
     inkscape:document-units="px"
     inkscape:current-layer="layer1"
     showgrid="false"
     units="px"
     inkscape:showpageshadow="false"
     inkscape:snap-bbox="true"
     inkscape:bbox-nodes="true"
     inkscape:object-paths="false"
     inkscape:snap-bbox-edge-midpoints="true"
     inkscape:snap-bbox-midpoints="false"
     inkscape:window-width="1600"
     inkscape:window-height="838"
     inkscape:window-x="-8"
     inkscape:window-y="-8"
     inkscape:window-maximized="1" />
  <metadata
     id="metadata7">
    <rdf:RDF>
      <cc:Work
         rdf:about="">
        <dc:format>image/svg+xml</dc:format>
        <dc:type
           rdf:resource="http://purl.org/dc/dcmitype/StillImage" />
        <dc:title></dc:title>
      </cc:Work>
    </rdf:RDF>
  </metadata>
  <g
     inkscape:label="Layer 1"
     inkscape:groupmode="layer"
     id="layer1"
     transform="translate(0,-952.36216)">
    <path
       style="opacity:1;fill:url(#linearGradient4197);fill-opacity:1;stroke:none;stroke-width:4.60710859;stroke-miterlimit:4;stroke-dasharray:none;stroke-dashoffset:0;stroke-opacity:1"
       d="M 26.595703 3.5664062 C 24.217298 3.5664062 22.302734 5.4829281 22.302734 7.8613281 L 22.302734 12.302734 L 18.617188 12.302734 C 15.119534 12.302734 12.302734 15.119533 12.302734 18.617188 L 12.302734 22.302734 L 7.8613281 22.302734 C 5.4829281 22.302734 3.5664062 24.217303 3.5664062 26.595703 C 3.5664062 28.974113 5.4829281 30.888672 7.8613281 30.888672 L 12.302734 30.888672 L 12.302734 45.707031 L 7.8613281 45.707031 C 5.4829281 45.707031 3.5664062 47.62154 3.5664062 50 C 3.5664062 52.3784 5.4829281 54.292969 7.8613281 54.292969 L 12.302734 54.292969 L 12.302734 69.111328 L 7.8613281 69.111328 C 5.4829281 69.111328 3.5664062 71.025897 3.5664062 73.404297 C 3.5664062 75.782697 5.4829281 77.697266 7.8613281 77.697266 L 12.302734 77.697266 L 12.302734 81.382812 C 12.302734 84.880466 15.119533 87.697266 18.617188 87.697266 L 22.302734 87.697266 L 22.302734 92.138672 C 22.302734 94.517072 24.217298 96.433594 26.595703 96.433594 C 28.974108 96.433594 30.888672 94.517072 30.888672 92.138672 L 30.888672 87.697266 L 45.707031 87.697266 L 45.707031 92.138672 C 45.707031 94.517072 47.621595 96.433594 50 96.433594 C 52.378405 96.433594 54.292969 94.517072 54.292969 92.138672 L 54.292969 87.697266 L 69.111328 87.697266 L 69.111328 92.138672 C 69.111328 94.517072 71.025892 96.433594 73.404297 96.433594 C 75.782702 96.433594 77.697266 94.517072 77.697266 92.138672 L 77.697266 87.697266 L 81.382812 87.697266 C 84.880466 87.697266 87.697266 84.880466 87.697266 81.382812 L 87.697266 77.697266 L 92.138672 77.697266 C 94.517072 77.697266 96.433594 75.782697 96.433594 73.404297 C 96.433594 71.025897 94.517072 69.111328 92.138672 69.111328 L 87.697266 69.111328 L 87.697266 54.292969 L 92.138672 54.292969 C 94.517072 54.292969 96.433594 52.3784 96.433594 50 C 96.433594 47.62154 94.517072 45.707031 92.138672 45.707031 L 87.697266 45.707031 L 87.697266 30.888672 L 92.138672 30.888672 C 94.517072 30.888672 96.433594 28.974113 96.433594 26.595703 C 96.433594 24.217303 94.517072 22.302734 92.138672 22.302734 L 87.697266 22.302734 L 87.697266 18.617188 C 87.697266 15.119534 84.880466 12.302734 81.382812 12.302734 L 77.697266 12.302734 L 77.697266 7.8613281 C 77.697266 5.4829281 75.782702 3.5664062 73.404297 3.5664062 C 71.025892 3.5664062 69.111328 5.4829281 69.111328 7.8613281 L 69.111328 12.302734 L 54.292969 12.302734 L 54.292969 7.8613281 C 54.292969 5.4829281 52.378405 3.5664062 50 3.5664062 C 47.621595 3.5664062 45.707031 5.4829281 45.707031 7.8613281 L 45.707031 12.302734 L 30.888672 12.302734 L 30.888672 7.8613281 C 30.888672 5.4829281 28.974108 3.5664062 26.595703 3.5664062 z M 34.375 31.232422 L 65.625 31.232422 C 67.366371 31.232422 68.767578 32.633629 68.767578 34.375 L 68.767578 65.625 C 68.767578 67.366371 67.366371 68.767578 65.625 68.767578 L 34.375 68.767578 C 32.633629 68.767578 31.232422 67.366371 31.232422 65.625 L 31.232422 34.375 C 31.232422 32.633629 32.633629 31.232422 34.375 31.232422 z "
       transform="translate(0,952.36216)"
       id="rect4136" />
  </g>
</svg>
