<?xml version="1.0" encoding="UTF-8" standalone="no"?>
<svg
   xmlns:dc="http://purl.org/dc/elements/1.1/"
   xmlns:cc="http://creativecommons.org/ns#"
   xmlns:rdf="http://www.w3.org/1999/02/22-rdf-syntax-ns#"
   xmlns:svg="http://www.w3.org/2000/svg"
   xmlns="http://www.w3.org/2000/svg"
   xmlns:xlink="http://www.w3.org/1999/xlink"
   xmlns:sodipodi="http://sodipodi.sourceforge.net/DTD/sodipodi-0.dtd"
   xmlns:inkscape="http://www.inkscape.org/namespaces/inkscape"
   version="1.1"
   id="svg2"
   viewBox="0 0 0 100"
   height="885"
   width="2050"
   inkscape:version="0.91 r13725"
   sodipodi:docname="slide02.svg"
   inkscape:export-filename="G:\iShop\img\slide03.png"
   inkscape:export-xdpi="90"
   inkscape:export-ydpi="90">
  <sodipodi:namedview
     pagecolor="#ffffff"
     bordercolor="#666666"
     borderopacity="1"
     objecttolerance="10"
     gridtolerance="10"
     guidetolerance="10"
     inkscape:pageopacity="0"
     inkscape:pageshadow="2"
     inkscape:window-width="1600"
     inkscape:window-height="838"
     id="namedview4145"
     showgrid="false"
     inkscape:zoom="0.14782951"
     inkscape:cx="1603.9421"
     inkscape:cy="859.91176"
     inkscape:window-x="-8"
     inkscape:window-y="-8"
     inkscape:window-maximized="1"
     inkscape:current-layer="svg2"
     inkscape:snap-bbox="true"
     inkscape:bbox-nodes="false"
     showguides="true"
     inkscape:guide-bbox="true">
    <sodipodi:guide
       position="339.91861,90.801182"
       orientation="1,0"
       id="guide4243" />
    <sodipodi:guide
       position="615.57397,90.801182"
       orientation="1,0"
       id="guide4245" />
  </sodipodi:namedview>
  <defs
     id="defs4">
    <linearGradient
       id="linearGradient4151">
      <stop
         style="stop-color:#139fe8;stop-opacity:1"
         offset="0"
         id="stop4153" />
      <stop
         style="stop-color:#36f4a8;stop-opacity:1"
         offset="1"
         id="stop4155" />
    </linearGradient>
    <linearGradient
       id="linearGradient4221">
      <stop
         id="stop4223"
         offset="0"
         style="stop-color:#139fe8;stop-opacity:1" />
      <stop
         id="stop4225"
         offset="1"
         style="stop-color:#33e6c7;stop-opacity:1" />
    </linearGradient>
    <linearGradient
       gradientTransform="translate(67.046326,-940.53983)"
       gradientUnits="userSpaceOnUse"
       y2="985.18701"
       x2="9.5964489"
       y1="985.18701"
       x1="-40.153564"
       id="linearGradient4255"
       xlink:href="#linearGradient4221" />
    <linearGradient
       inkscape:collect="always"
       xlink:href="#linearGradient4151"
       id="linearGradient4149"
       x1="0"
       y1="442.5"
       x2="2050"
       y2="442.5"
       gradientUnits="userSpaceOnUse"
       gradientTransform="translate(0,-2063.1875)" />
    <linearGradient
       id="linearGradient4151-9">
      <stop
         style="stop-color:#4f47bc;stop-opacity:1"
         offset="0"
         id="stop4153-1" />
      <stop
         style="stop-color:#a84ef4;stop-opacity:1"
         offset="1"
         id="stop4155-6" />
    </linearGradient>
    <linearGradient
       gradientTransform="translate(67.046326,-940.53983)"
       gradientUnits="userSpaceOnUse"
       y2="985.18701"
       x2="9.5964489"
       y1="985.18701"
       x1="-40.153564"
       id="linearGradient4255-3"
       xlink:href="#linearGradient4221" />
    <linearGradient
       xlink:href="#linearGradient4151"
       id="linearGradient4149-7"
       x1="0"
       y1="442.5"
       x2="2050"
       y2="442.5"
       gradientUnits="userSpaceOnUse"
       gradientTransform="translate(-1572.9285,293.67992)" />
  </defs>
  <metadata
     id="metadata7">
    <rdf:RDF>
      <cc:Work
         rdf:about="">
        <dc:format>image/svg+xml</dc:format>
        <dc:type
           rdf:resource="http://purl.org/dc/dcmitype/StillImage" />
        <dc:title></dc:title>
      </cc:Work>
    </rdf:RDF>
  </metadata>
  <g
     id="g4301">
    <rect
       y="-2063.1875"
       x="0"
       height="885"
       width="2050"
       id="rect4147"
       style="opacity:1;fill:url(#linearGradient4149);fill-opacity:1;stroke:none;stroke-width:5;stroke-miterlimit:4;stroke-dasharray:none;stroke-dashoffset:0;stroke-opacity:1" />
    <g
       style="opacity:0.5;fill:#ffffff"
       inkscape:label="Layer 1"
       id="layer1"
       transform="matrix(9.266404,2.4829255,-2.4829255,9.266404,3653.3713,-10933.836)">
      <path
         style="opacity:1;fill:#ffffff;fill-opacity:1;stroke:none;stroke-width:5;stroke-miterlimit:4;stroke-dasharray:none;stroke-dashoffset:0;stroke-opacity:1"
         d="m 21.439453,980.72152 c -2.000427,0 -3.611328,1.78118 -3.611328,3.99218 l 0,33.7324 -6.71875,0 c -1.1192489,0 -2.0214842,0.6393 -2.0214842,1.4336 l 0,2.6895 c 0,0.7943 0.9022353,1.4336 2.0214842,1.4336 l 77.78125,0 c 1.119249,0 2.021484,-0.6393 2.021484,-1.4336 l 0,-2.6895 c 0,-0.7943 -0.902235,-1.4336 -2.021484,-1.4336 l -6.71875,0 0,-33.7324 c 0,-2.211 -1.610901,-3.99218 -3.611328,-3.99218 l -57.121094,0 z M 50,981.80159 a 0.98214287,0.98214287 0 0 1 0.982422,0.98243 A 0.98214287,0.98214287 0 0 1 50,983.76644 0.98214287,0.98214287 0 0 1 49.017578,982.78402 0.98214287,0.98214287 0 0 1 50,981.80159 Z m -29.105469,3.10743 58.210938,0 0,31.31448 -58.210938,0 0,-31.31448 z m 20.330078,33.53708 17.550782,0 c 0.0091,0.065 0.01953,0.1283 0.01953,0.1953 0,0.7667 -0.618069,1.3848 -1.384766,1.3848 l -14.820312,0 c -0.766697,0 -1.384766,-0.6181 -1.384766,-1.3848 0,-0.067 0.01041,-0.1308 0.01953,-0.1953 z"
         id="rect4199"
         inkscape:connector-curvature="0" />
    </g>
    <path
       inkscape:connector-curvature="0"
       id="rect4239"
       d="m 180.4605,-1865.6671 c -21.71919,5.8196 -34.51961,27.9906 -28.69997,49.7098 l 141.81413,529.2575 c 5.81964,21.7192 27.99062,34.5196 49.70981,28.7 l 248.29387,-66.5301 c 21.7192,-5.8197 34.51773,-27.9902 28.69809,-49.7093 L 478.4623,-1903.4968 c -5.81964,-21.7192 -27.98873,-34.5201 -49.70793,-28.7005 l -248.29387,66.5302 z m 0.79325,35.6359 266.26349,-71.3451 26.66393,99.5111 -266.2635,71.3451 -26.66392,-99.5111 z m 30.38445,113.3963 266.26349,-71.3451 9.19161,34.3036 -266.26349,71.345 -9.19161,-34.3035 z m 12.91214,48.1887 266.26349,-71.3451 26.66341,99.5093 -266.26349,71.3451 -26.66341,-99.5093 z m 176.96114,131.1686 a 44.24514,44.24514 0 0 1 54.18967,31.2848 44.24514,44.24514 0 0 1 -31.28671,54.1902 44.24514,44.24514 0 0 1 -54.18829,-31.2872 44.24514,44.24514 0 0 1 31.28533,-54.1878 z m 4.26091,15.9019 a 27.781443,27.781443 0 0 0 -19.64431,34.0249 27.781443,27.781443 0 0 0 34.02494,19.6444 27.781443,27.781443 0 0 0 19.64431,-34.025 27.781443,27.781443 0 0 0 -34.02494,-19.6443 z m -92.1883,185.208 266.26349,-71.3451 10.28603,38.388 -266.26349,71.3451 -10.28603,-38.388 z"
       style="opacity:0.5;fill:#ffffff;fill-opacity:1;stroke:none;stroke-width:5;stroke-miterlimit:4;stroke-dasharray:none;stroke-dashoffset:0;stroke-opacity:1" />
  </g>
  <g
     id="g4307"
     transform="translate(1572.9285,-293.67993)">
    <rect
       y="293.67993"
       x="-1572.9285"
       height="885"
       width="2050"
       id="rect4147-8"
       style="opacity:1;fill:url(#linearGradient4149-7);fill-opacity:1;stroke:none;stroke-width:5;stroke-miterlimit:4;stroke-dasharray:none;stroke-dashoffset:0;stroke-opacity:1" />
    <path
       id="rect4157"
       d="m -13.9344,370.66234 c -16.4884,0.34999 -32.3627,9.06631 -41.2441,24.44922 l -344.0234,595.86719 c -13.5335,23.44065 -5.5442,53.20095 17.8964,66.73435 l 209.5215,120.9668 224.9551,0 312.209,-540.75975 c 13.5334,-23.44063 5.5422,-53.20286 -17.8984,-66.73632 L 11.5656,377.24242 c -8.0577,-4.65212 -16.8631,-6.7634 -25.5,-6.58008 z M -28.4051,423.55492 327.3586,628.95531 18.8977,1163.2248 -336.864,957.82445 -28.4051,423.55492 Z m -159.3964,653.50198 a 30.865582,30.865582 0 0 1 16.9042,4.1035 30.865582,30.865582 0 0 1 11.3008,42.1758 30.865582,30.865582 0 0 1 -42.164,11.2812 30.865582,30.865582 0 0 1 -11.3106,-42.1562 30.865582,30.865582 0 0 1 25.2696,-15.4043 z"
       style="opacity:0.5;fill:#ffffff;fill-opacity:1;stroke:none;stroke-width:5;stroke-miterlimit:4;stroke-dasharray:none;stroke-dashoffset:0;stroke-opacity:1"
       inkscape:connector-curvature="0" />
    <path
       id="rect4198"
       d="m -1340.1121,686.07445 c -14.5288,-0.23906 -30.1791,9.74295 -54.6348,34.16992 -19.5738,19.55084 -35.667,39.0555 -54.4492,65.99024 l -9.4844,13.59961 0.252,10.31836 c 1.231,50.35062 40.8122,145.16663 92.2559,221.00002 18.9728,27.9679 32.6196,44.7309 53.039,65.1504 20.4626,20.4626 37.2646,34.1345 65.1485,53.0097 15.418,10.4368 31.3305,20.2705 47.3847,29.3672 l 51.5391,0 c -41.5957,-20.1085 -84.0335,-45.9078 -117.9883,-72.8203 -16.1036,-12.7638 -40.3241,-36.7326 -52.9629,-52.4121 -54.2296,-67.27654 -102.8861,-165.84222 -113.2422,-229.40039 l -2.4472,-15.01758 6.58,-9.57227 c 30.6884,-44.64553 75.1144,-89.80052 88.4063,-89.85742 9.4962,-0.0408 36.6343,18.62067 57.6777,39.66406 30.6692,30.66913 48.5936,63.62965 42.545,78.23243 -2.2819,5.50895 -15.9948,16.59943 -39.1075,31.63086 -27.0742,17.60781 -34.9219,27.38315 -37.0215,46.11523 -2.0719,18.48556 7.2879,43.10938 25.8438,67.98633 12.5529,16.82906 83.85,88.13315 100.7168,100.72655 16.3024,12.1721 35.2231,21.5937 49.4902,24.6445 9.4461,2.02 12.6099,2.1204 21.0567,0.6719 5.467,-0.9374 11.8898,-2.7127 14.2734,-3.9453 8.4835,-4.3869 17.4309,-14.3353 29.2812,-32.5566 15.0513,-23.1434 26.1242,-36.8258 31.6563,-39.1172 14.2677,-5.9099 43.9777,9.4924 74.47852,38.6133 23.64437,22.5747 43.43248,50.2177 43.39648,60.625 -0.0258,7.4474 -8.52669,19.1656 -27.52344,37.9453 -6.33029,6.258 -12.60539,12.1116 -19.15625,17.8437 l 35.26172,0 c 0.25699,-0.2561 0.51454,-0.5064 0.77149,-0.7636 28.22827,-28.2616 36.90932,-44.2263 33.35742,-61.336 -3.76633,-18.1418 -19.63648,-41.8651 -44.58203,-66.6387 -23.28415,-23.1234 -45.48517,-38.7272 -66.94531,-47.0507 -7.8812,-3.05679 -12.4593,-3.88129 -22.0293,-3.96879 -10.7737,-0.0982 -12.8821,0.3334 -19.4844,3.99219 -9.4851,5.2563 -21.4566,19.4633 -39.2226,46.5488 -11.7834,17.9645 -14.4926,21.2152 -19.8457,23.8067 -15.5539,7.5294 -36.61,0.1826 -64.7676,-22.6016 -16.6287,-13.4553 -77.4686,-74.55451 -89.5137,-89.89453 -18.6987,-23.8135 -26.5739,-45.39553 -21.4824,-58.87109 2.4804,-6.56501 8.1703,-11.56516 27.623,-24.27539 44.2237,-28.89537 53.7893,-43.12211 47.0625,-69.99805 -11.0925,-44.31908 -76.8801,-112.25002 -117.0254,-120.83789 -2.0521,-0.43899 -4.1061,-0.68265 -6.1816,-0.7168 z"
       style="opacity:0.5;fill:#ffffff;fill-opacity:1;stroke:none;stroke-width:5;stroke-miterlimit:4;stroke-dasharray:none;stroke-dashoffset:0;stroke-opacity:1"
       inkscape:connector-curvature="0" />
  </g>
</svg>
