<?xml version="1.0" encoding="UTF-8" standalone="no"?>
<svg
   xmlns:dc="http://purl.org/dc/elements/1.1/"
   xmlns:cc="http://creativecommons.org/ns#"
   xmlns:rdf="http://www.w3.org/1999/02/22-rdf-syntax-ns#"
   xmlns:svg="http://www.w3.org/2000/svg"
   xmlns="http://www.w3.org/2000/svg"
   xmlns:xlink="http://www.w3.org/1999/xlink"
   width="2050"
   height="885"
   viewBox="0 0 0 100"
   id="svg2"
   version="1.1">
  <defs
     id="defs4">
    <linearGradient
       id="linearGradient4151">
      <stop
         id="stop4153"
         offset="0"
         style="stop-color:#4f47bc;stop-opacity:1" />
      <stop
         id="stop4155"
         offset="1"
         style="stop-color:#a84ef4;stop-opacity:1" />
    </linearGradient>
    <linearGradient
       id="linearGradient4221">
      <stop
         style="stop-color:#139fe8;stop-opacity:1"
         offset="0"
         id="stop4223" />
      <stop
         style="stop-color:#33e6c7;stop-opacity:1"
         offset="1"
         id="stop4225" />
    </linearGradient>
    <linearGradient
       xlink:href="#linearGradient4221"
       id="linearGradient4255"
       x1="-40.153564"
       y1="985.18701"
       x2="9.5964489"
       y2="985.18701"
       gradientUnits="userSpaceOnUse"
       gradientTransform="translate(67.046326,-940.53983)" />
    <linearGradient
       gradientUnits="userSpaceOnUse"
       y2="442.5"
       x2="2050"
       y1="442.5"
       x1="0"
       id="linearGradient4149"
       xlink:href="#linearGradient4151" />
  </defs>
  <metadata
     id="metadata7">
    <rdf:RDF>
      <cc:Work
         rdf:about="">
        <dc:format>image/svg+xml</dc:format>
        <dc:type
           rdf:resource="http://purl.org/dc/dcmitype/StillImage" />
        <dc:title></dc:title>
      </cc:Work>
    </rdf:RDF>
  </metadata>
  <g
     id="g4201">
    <rect
       style="opacity:1;fill:url(#linearGradient4149);fill-opacity:1;stroke:none;stroke-width:5;stroke-miterlimit:4;stroke-dasharray:none;stroke-dashoffset:0;stroke-opacity:1"
       id="rect4147"
       width="2050"
       height="885"
       x="0"
       y="0" />
    <path
       style="opacity:0.5;fill:#ffffff;fill-opacity:1;stroke:none;stroke-width:5;stroke-miterlimit:4;stroke-dasharray:none;stroke-dashoffset:0;stroke-opacity:1"
       d="M 1558.9941 76.982422 C 1542.5057 77.332406 1526.6314 86.04873 1517.75 101.43164 L 1173.7266 697.29883 C 1160.1931 720.73946 1168.1824 750.49974 1191.623 764.0332 L 1401.1445 885 L 1626.0996 885 L 1938.3086 344.24023 C 1951.842 320.7996 1943.8508 291.03737 1920.4102 277.50391 L 1584.4941 83.5625 C 1576.4364 78.910376 1567.631 76.799097 1558.9941 76.982422 z M 1544.5234 129.875 L 1900.2871 335.27539 L 1591.8262 869.54492 L 1236.0645 664.14453 L 1544.5234 129.875 z M 1385.127 783.37695 A 30.865582 30.865582 0 0 1 1402.0312 787.48047 A 30.865582 30.865582 0 0 1 1413.332 829.65625 A 30.865582 30.865582 0 0 1 1371.168 840.9375 A 30.865582 30.865582 0 0 1 1359.8574 798.78125 A 30.865582 30.865582 0 0 1 1385.127 783.37695 z "
       id="rect4157" />
    <path
       style="opacity:0.5;fill:#ffffff;fill-opacity:1;stroke:none;stroke-width:5;stroke-miterlimit:4;stroke-dasharray:none;stroke-dashoffset:0;stroke-opacity:1"
       d="M 232.81641 392.39453 C 218.28764 392.15547 202.63727 402.13748 178.18164 426.56445 C 158.60785 446.11529 142.51462 465.61995 123.73242 492.55469 L 114.24805 506.1543 L 114.5 516.47266 C 115.73098 566.82328 155.31217 661.63929 206.75586 737.47266 C 225.72867 765.44058 239.3755 782.20354 259.79492 802.62305 C 280.25755 823.08566 297.05953 836.75758 324.94336 855.63281 C 340.36136 866.06962 356.27393 875.90326 372.32812 885 L 423.86719 885 C 382.27151 864.89149 339.83366 839.09221 305.87891 812.17969 C 289.77527 799.41592 265.55477 775.44712 252.91602 759.76758 C 198.68636 692.49104 150.02988 593.92536 139.67383 530.36719 L 137.22656 515.34961 L 143.80664 505.77734 C 174.49503 461.13181 218.92104 415.97682 232.21289 415.91992 C 241.70909 415.8791 268.84724 434.54059 289.89062 455.58398 C 320.55979 486.25311 338.48425 519.21363 332.43555 533.81641 C 330.15369 539.32536 316.44079 550.41584 293.32812 565.44727 C 266.25386 583.05508 258.40621 592.83042 256.30664 611.5625 C 254.23471 630.04806 263.59446 654.67188 282.15039 679.54883 C 294.70326 696.37789 366.00036 767.68194 382.86719 780.27539 C 399.16965 792.44746 418.09026 801.8691 432.35742 804.91992 C 441.80349 806.93983 444.96726 807.04024 453.41406 805.5918 C 458.88114 804.65434 465.30388 802.87911 467.6875 801.64648 C 476.17096 797.25954 485.11845 787.31116 496.96875 769.08984 C 512.02001 745.94649 523.09291 732.26409 528.625 729.97266 C 542.89272 724.06281 572.6027 739.46508 603.10352 768.58594 C 626.74789 791.16067 646.536 818.80363 646.5 829.21094 C 646.47415 836.65838 637.97331 848.37653 618.97656 867.15625 C 612.64627 873.41426 606.37117 879.26786 599.82031 885 L 635.08203 885 C 635.33902 884.74391 635.59657 884.49358 635.85352 884.23633 C 664.08179 855.97482 672.76284 840.01006 669.21094 822.90039 C 665.44461 804.75854 649.57446 781.03531 624.62891 756.26172 C 601.34476 733.13826 579.14374 717.53444 557.68359 709.21094 C 549.80244 706.15419 545.2243 705.32969 535.6543 705.24219 C 524.88064 705.14396 522.77225 705.57559 516.16992 709.23438 C 506.6848 714.49068 494.71335 728.69771 476.94727 755.7832 C 465.16391 773.74767 462.45473 776.99836 457.10156 779.58984 C 441.54768 787.11925 420.49161 779.77245 392.33398 756.98828 C 375.70527 743.53298 314.86545 682.43377 302.82031 667.09375 C 284.12163 643.28025 276.24645 621.69822 281.33789 608.22266 C 283.81832 601.65765 289.50823 596.6575 308.96094 583.94727 C 353.18464 555.0519 362.7502 540.82516 356.02344 513.94922 C 344.93086 469.63014 279.14326 401.6992 238.99805 393.11133 C 236.94593 392.67234 234.89194 392.42868 232.81641 392.39453 z "
       id="rect4198" />
  </g>
</svg>
